<?xml version="1.0" encoding="iso-8859-1"?>
<!-- Uploaded to: SVG Repo, www.svgrepo.com, Generator: SVG Repo Mixer Tools -->
<!DOCTYPE svg PUBLIC "-//W3C//DTD SVG 1.1//EN" "http://www.w3.org/Graphics/SVG/1.1/DTD/svg11.dtd">
<svg fill="#000000" version="1.1" id="Capa_1" xmlns="http://www.w3.org/2000/svg" xmlns:xlink="http://www.w3.org/1999/xlink" 
	 width="800px" height="800px" viewBox="0 0 45.786 45.786"
	 xml:space="preserve">
<g>
	<g>
		<path d="M18.076,0H3.815C1.708,0,0,1.708,0,3.815v14.261c0,2.107,1.708,3.815,3.815,3.815h14.261c2.107,0,3.815-1.708,3.815-3.815
			V3.815C21.892,1.708,20.184,0,18.076,0z M12.751,15.5H8.856c-0.47,0-0.844-0.365-0.844-0.835v-7.09
			c0-0.562,0.464-1.017,1.025-1.017s1.025,0.456,1.025,1.017v6.039c0,0.111,0.066,0.217,0.177,0.217h2.51
			c0.47,0,0.851,0.365,0.851,0.835C13.602,15.136,13.221,15.5,12.751,15.5z"/>
		<path d="M18.076,23.895H3.815C1.708,23.895,0,25.604,0,27.71v14.261c0,2.107,1.708,3.815,3.815,3.815h14.261
			c2.107,0,3.815-1.708,3.815-3.815V27.71C21.892,25.604,20.184,23.895,18.076,23.895z M14.556,31.688l-2.338,6.935
			c-0.138,0.41-0.522,0.678-0.955,0.678h-0.907c-0.438,0-0.826-0.274-0.959-0.692l-2.209-6.89c-0.102-0.317-0.046-0.663,0.151-0.933
			c0.197-0.27,0.511-0.428,0.845-0.428c0.466,0,0.875,0.309,1.004,0.757l0.872,3.03c0.306,1.062,0.585,2.104,0.798,3.2h0.04
			c0.226-1.049,0.505-2.137,0.811-3.161l0.928-3.106c0.127-0.427,0.52-0.72,0.965-0.72c0.324,0,0.629,0.158,0.818,0.42
			C14.609,31.041,14.66,31.38,14.556,31.688z"/>
		<path d="M41.971,0H27.71c-2.106,0-3.815,1.708-3.815,3.815v14.261c0,2.107,1.709,3.815,3.815,3.815h14.261
			c2.107,0,3.815-1.708,3.815-3.815V3.815C45.786,1.708,44.078,0,41.971,0z M35.182,15.428c-2.574,0-4.08-1.943-4.08-4.415
			c0-2.6,1.66-4.543,4.222-4.543c2.663,0,4.118,1.995,4.118,4.389C39.441,13.703,37.716,15.428,35.182,15.428z"/>
		<path d="M35.271,8.027c-1.326,0-2.099,1.261-2.099,2.947c0,1.699,0.798,2.896,2.111,2.896c1.325,0,2.085-1.261,2.085-2.947
			C37.369,9.366,36.622,8.027,35.271,8.027z"/>
		<path d="M41.971,23.895H27.71c-2.106,0-3.815,1.709-3.815,3.815v14.261c0,2.107,1.709,3.815,3.815,3.815h14.261
			c2.107,0,3.815-1.708,3.815-3.815V27.71C45.786,25.604,44.078,23.895,41.971,23.895z M37.081,39.3h-4.054
			c-0.459,0-0.834-0.354-0.834-0.813v-7.297c0-0.459,0.375-0.809,0.834-0.809h3.867c0.459,0,0.832,0.352,0.832,0.811
			s-0.373,0.812-0.832,0.812h-2.649v1.86h2.458c0.455,0,0.824,0.379,0.824,0.834s-0.369,0.834-0.824,0.834h-2.458v2.146h2.836
			c0.459,0,0.831,0.353,0.831,0.812C37.911,38.948,37.54,39.3,37.081,39.3z"/>
	</g>
</g>
</svg>